<svg width="14" height="14" viewBox="0 0 14 14" fill="none" xmlns="http://www.w3.org/2000/svg">
<path fill-rule="evenodd" clip-rule="evenodd" d="M2.5 1C2.08579 0.585787 1.41421 0.585787 1 1C0.585786 1.41421 0.585786 2.08579 1 2.5L5.5 7L1 11.5C0.585786 11.9142 0.585786 12.5858 1 13C1.41421 13.4142 2.08579 13.4142 2.5 13L7 8.5L11.5 13C11.9142 13.4142 12.5858 13.4142 13 13C13.4142 12.5858 13.4142 11.9142 13 11.5L8.5 7L13 2.5C13.4142 2.08579 13.4142 1.41421 13 1C12.5858 0.585787 11.9142 0.585787 11.5 1L7 5.5L2.5 1Z" fill="#282828"/>
</svg>
