<svg width="22" height="23" viewBox="0 0 22 23" fill="none" xmlns="http://www.w3.org/2000/svg">
<path d="M21 12.174V20C21 20.5304 20.7893 21.0391 20.4142 21.4142C20.0391 21.7893 19.5304 22 19 22H3C2.46957 22 1.96086 21.7893 1.58579 21.4142C1.21071 21.0391 1 20.5304 1 20V12.174C0.999942 11.6295 1.11104 11.0908 1.3265 10.5907C1.54195 10.0907 1.85722 9.63992 2.253 9.266L9.626 2.298C9.99734 1.94692 10.489 1.75131 11 1.75131C11.511 1.75131 12.0027 1.94692 12.374 2.298L19.747 9.266C20.1428 9.63992 20.458 10.0907 20.6735 10.5907C20.889 11.0908 21.0001 11.6295 21 12.174Z" stroke="#282828" stroke-width="2" stroke-linecap="round" stroke-linejoin="round"/>
</svg>
